<svg width="201" height="195" viewBox="0 0 201 195" fill="none" xmlns="http://www.w3.org/2000/svg">
<path d="M96.5906 2.18974C99.0193 0.829342 101.981 0.829345 104.409 2.18974L183.445 46.4588C185.971 47.8737 187.536 50.5431 187.536 53.4385V141.561C187.536 144.457 185.971 147.126 183.445 148.541L104.409 192.81C101.981 194.171 99.0193 194.171 96.5906 192.81L17.555 148.541C15.0289 147.126 13.4644 144.457 13.4644 141.561V53.4385C13.4644 50.5431 15.0289 47.8737 17.555 46.4588L96.5906 2.18974Z" fill="#302D42"/>
<path d="M98.1356 100.269C99.6123 99.4764 101.388 99.4764 102.864 100.269L164.96 133.594C168.474 135.48 168.474 140.52 164.96 142.406L102.864 175.731C101.388 176.524 99.6123 176.524 98.1356 175.731L36.0399 142.406C32.5258 140.52 32.5258 135.48 36.0399 133.594L98.1356 100.269Z" fill="#818DF9" fill-opacity="0.46"/>
<path d="M97.7457 19.1942C99.216 18.4103 100.98 18.4103 102.45 19.1942L162.553 51.2384C164.183 52.1072 165.201 53.8037 165.201 55.6505V119.07C165.201 120.916 164.183 122.613 162.553 123.482L102.45 155.526C100.98 156.31 99.216 156.31 97.7457 155.526L37.6431 123.482C36.0135 122.613 34.9955 120.916 34.9955 119.07V55.6505C34.9955 53.8037 36.0135 52.1072 37.6431 51.2384L97.7457 19.1942Z" fill="#4F6DBA" fill-opacity="0.31"/>
<path d="M100.5 154.691C100.5 155.282 100.999 155.759 101.578 155.641C102.636 155.427 103.637 154.893 105.639 153.826L159.237 125.25C161.384 124.105 162.457 123.533 163.244 122.719C163.969 121.968 164.515 121.072 164.844 120.094C165.201 119.033 165.201 117.845 165.201 115.468V59.2522C165.201 56.8753 165.201 55.6869 164.844 54.6264C164.515 53.6481 163.969 52.7518 163.244 52.0011C162.457 51.1873 161.384 50.615 159.237 49.4702L105.639 20.8943C103.637 19.8269 102.636 19.2932 101.578 19.0787C100.999 18.9612 100.5 19.4379 100.5 20.0291V154.691Z" fill="#4F6DBA" fill-opacity="0.31"/>
</svg>
