<svg width="188" height="45" viewBox="0 0 188 45" fill="none" xmlns="http://www.w3.org/2000/svg">
<path d="M20.5 1.1547C21.7376 0.440169 23.2624 0.440169 24.5 1.1547L39.9856 10.0953C41.2232 10.8098 41.9856 12.1303 41.9856 13.5594V31.4406C41.9856 32.8697 41.2232 34.1902 39.9856 34.9047L24.5 43.8453C23.2624 44.5598 21.7376 44.5598 20.5 43.8453L5.01443 34.9047C3.77682 34.1902 3.01443 32.8697 3.01443 31.4406V13.5594C3.01443 12.1303 3.77682 10.8098 5.01443 10.0953L20.5 1.1547Z" fill="#302D42"/>
<path d="M21.5319 23.3817C22.1343 23.0485 22.8657 23.0485 23.4681 23.3817L35.6056 30.0961C36.9815 30.8572 36.9815 32.8351 35.6056 33.5962L23.4681 40.3106C22.8657 40.6438 22.1343 40.6438 21.5319 40.3106L9.39435 33.5962C8.01851 32.8351 8.01851 30.8572 9.39435 30.0961L21.5319 23.3817Z" fill="#454D90" fill-opacity="0.54"/>
<path d="M21.4468 4.66938C22.0466 4.33972 22.7734 4.33972 23.3733 4.66938L35.9485 11.5803C36.5879 11.9317 36.9852 12.6034 36.9852 13.333V26.987C36.9852 27.7166 36.5879 28.3884 35.9485 28.7398L23.3733 35.6506C22.7734 35.9803 22.0466 35.9803 21.4468 35.6506L8.87154 28.7398C8.23212 28.3884 7.83479 27.7166 7.83479 26.987V13.333C7.83479 12.6034 8.23212 11.9317 8.87155 11.5803L21.4468 4.66938Z" fill="#8EAEFF" fill-opacity="0.08"/>
<path d="M22.5 35.7053C22.5 35.8376 22.6119 35.9443 22.7414 35.9172V35.9172C22.9782 35.8677 23.2023 35.7446 23.6506 35.4982L35.65 28.9038C36.1307 28.6396 36.371 28.5075 36.5471 28.3198C36.7095 28.1465 36.8318 27.9397 36.9054 27.7139C36.9852 27.4692 36.9852 27.1949 36.9852 26.6464V13.6736C36.9852 13.1251 36.9852 12.8508 36.9054 12.6061C36.8318 12.3803 36.7095 12.1735 36.5471 12.0003C36.371 11.8125 36.1307 11.6804 35.65 11.4162L23.6506 4.82178C23.2023 4.57545 22.9782 4.45228 22.7414 4.40279V4.40279C22.6119 4.37572 22.5 4.4824 22.5 4.61475V35.7053Z" fill="#8EAEFF" fill-opacity="0.08"/>
<path d="M66.736 34.28C65.672 34.28 64.6547 34.1493 63.684 33.888C62.732 33.608 61.8827 33.1973 61.136 32.656C60.3893 32.1147 59.792 31.4427 59.344 30.64C58.9147 29.8373 58.6813 28.904 58.644 27.84C58.644 27.672 58.7 27.532 58.812 27.42C58.924 27.2893 59.0733 27.224 59.26 27.224H63.04C63.3013 27.224 63.4973 27.2893 63.628 27.42C63.7773 27.5507 63.8987 27.7467 63.992 28.008C64.0853 28.5307 64.2627 28.96 64.524 29.296C64.7853 29.6133 65.112 29.856 65.504 30.024C65.9147 30.1733 66.372 30.248 66.876 30.248C67.8093 30.248 68.528 29.9493 69.032 29.352C69.536 28.736 69.788 27.84 69.788 26.664V18.572H60.716C60.5293 18.572 60.3613 18.5067 60.212 18.376C60.0813 18.2453 60.016 18.0773 60.016 17.872V15.1C60.016 14.8947 60.0813 14.7267 60.212 14.596C60.3613 14.4653 60.5293 14.4 60.716 14.4H74.268C74.4733 14.4 74.6413 14.4653 74.772 14.596C74.9213 14.7267 74.996 14.8947 74.996 15.1V26.804C74.996 28.428 74.6413 29.8 73.932 30.92C73.2227 32.0213 72.252 32.8613 71.02 33.44C69.788 34 68.36 34.28 66.736 34.28ZM82.7231 34.28C81.7151 34.28 80.8098 34.0933 80.0071 33.72C79.2231 33.328 78.5978 32.8053 78.1311 32.152C77.6645 31.4987 77.4311 30.7613 77.4311 29.94C77.4311 28.6147 77.9725 27.5693 79.0551 26.804C80.1378 26.02 81.5751 25.488 83.3671 25.208L86.8671 24.676V24.284C86.8671 23.612 86.7271 23.0987 86.4471 22.744C86.1671 22.3893 85.6538 22.212 84.9071 22.212C84.3845 22.212 83.9551 22.3147 83.6191 22.52C83.3018 22.7253 83.0498 23.0053 82.8631 23.36C82.6951 23.6027 82.4618 23.724 82.1631 23.724H79.0271C78.8218 23.724 78.6631 23.668 78.5511 23.556C78.4391 23.4253 78.3925 23.276 78.4111 23.108C78.4111 22.772 78.5325 22.3893 78.7751 21.96C79.0365 21.512 79.4285 21.0733 79.9511 20.644C80.4738 20.2147 81.1458 19.86 81.9671 19.58C82.7885 19.3 83.7778 19.16 84.9351 19.16C86.1485 19.16 87.1845 19.3 88.0431 19.58C88.9018 19.86 89.5925 20.252 90.1151 20.756C90.6565 21.26 91.0578 21.8573 91.3191 22.548C91.5805 23.22 91.7111 23.9667 91.7111 24.788V33.3C91.7111 33.5053 91.6365 33.6733 91.4871 33.804C91.3565 33.9347 91.1978 34 91.0111 34H87.7631C87.5578 34 87.3898 33.9347 87.2591 33.804C87.1285 33.6733 87.0631 33.5053 87.0631 33.3V32.32C86.8205 32.6747 86.4938 33.0013 86.0831 33.3C85.6725 33.5987 85.1871 33.832 84.6271 34C84.0858 34.1867 83.4511 34.28 82.7231 34.28ZM84.0391 31.088C84.5805 31.088 85.0658 30.976 85.4951 30.752C85.9431 30.5093 86.2885 30.1453 86.5311 29.66C86.7925 29.156 86.9231 28.5307 86.9231 27.784V27.392L84.5431 27.812C83.6658 27.9613 83.0218 28.1947 82.6111 28.512C82.2191 28.8107 82.0231 29.1653 82.0231 29.576C82.0231 29.8933 82.1165 30.164 82.3031 30.388C82.4898 30.612 82.7325 30.7893 83.0311 30.92C83.3298 31.032 83.6658 31.088 84.0391 31.088ZM101.563 34.28C100.181 34.28 98.9588 34.028 97.8948 33.524C96.8308 33.02 95.9814 32.292 95.3468 31.34C94.7308 30.3693 94.3948 29.212 94.3388 27.868C94.3201 27.5693 94.3108 27.196 94.3108 26.748C94.3108 26.2813 94.3201 25.8987 94.3388 25.6C94.3948 24.2373 94.7308 23.08 95.3468 22.128C95.9628 21.1573 96.8028 20.42 97.8668 19.916C98.9494 19.412 100.181 19.16 101.563 19.16C102.851 19.16 103.952 19.3467 104.867 19.72C105.781 20.0747 106.528 20.5227 107.107 21.064C107.685 21.6053 108.115 22.1653 108.395 22.744C108.693 23.304 108.852 23.7987 108.871 24.228C108.889 24.4147 108.824 24.5827 108.675 24.732C108.525 24.8627 108.357 24.928 108.171 24.928H104.615C104.409 24.928 104.251 24.8813 104.139 24.788C104.027 24.6947 103.924 24.5547 103.831 24.368C103.607 23.7893 103.317 23.3787 102.963 23.136C102.627 22.8933 102.188 22.772 101.647 22.772C100.9 22.772 100.321 23.0147 99.9108 23.5C99.5188 23.9853 99.3041 24.732 99.2668 25.74C99.2481 26.4867 99.2481 27.1493 99.2668 27.728C99.3041 28.7547 99.5188 29.5013 99.9108 29.968C100.321 30.4347 100.9 30.668 101.647 30.668C102.225 30.668 102.683 30.5467 103.019 30.304C103.355 30.0613 103.625 29.6507 103.831 29.072C103.924 28.8853 104.027 28.7453 104.139 28.652C104.251 28.5587 104.409 28.512 104.615 28.512H108.171C108.357 28.512 108.525 28.5867 108.675 28.736C108.824 28.8667 108.889 29.0253 108.871 29.212C108.852 29.5293 108.759 29.9027 108.591 30.332C108.423 30.7427 108.161 31.1813 107.807 31.648C107.452 32.1147 106.985 32.5533 106.407 32.964C105.847 33.356 105.165 33.6733 104.363 33.916C103.56 34.1587 102.627 34.28 101.563 34.28ZM112.086 34C111.881 34 111.713 33.9347 111.582 33.804C111.452 33.6733 111.386 33.5053 111.386 33.3V14.82C111.386 14.6147 111.452 14.4467 111.582 14.316C111.713 14.1853 111.881 14.12 112.086 14.12H115.334C115.521 14.12 115.68 14.1853 115.81 14.316C115.96 14.4467 116.034 14.6147 116.034 14.82V24.2L119.926 19.916C120.038 19.7853 120.16 19.6733 120.29 19.58C120.421 19.4867 120.608 19.44 120.85 19.44H124.602C124.77 19.44 124.91 19.5053 125.022 19.636C125.153 19.748 125.218 19.888 125.218 20.056C125.218 20.1307 125.2 20.2147 125.162 20.308C125.125 20.4013 125.069 20.476 124.994 20.532L119.954 25.964L125.694 32.936C125.844 33.0853 125.918 33.2347 125.918 33.384C125.918 33.552 125.853 33.7013 125.722 33.832C125.61 33.944 125.461 34 125.274 34H121.438C121.158 34 120.953 33.9533 120.822 33.86C120.692 33.748 120.57 33.636 120.458 33.524L116.034 28.204V33.3C116.034 33.5053 115.96 33.6733 115.81 33.804C115.68 33.9347 115.521 34 115.334 34H112.086ZM128.438 39.32C128.233 39.32 128.065 39.2547 127.934 39.124C127.803 38.9933 127.738 38.8253 127.738 38.62V20.14C127.738 19.9347 127.803 19.7667 127.934 19.636C128.065 19.5053 128.233 19.44 128.438 19.44H131.602C131.789 19.44 131.947 19.5053 132.078 19.636C132.227 19.7667 132.302 19.9347 132.302 20.14V21.176C132.731 20.5973 133.301 20.1213 134.01 19.748C134.719 19.356 135.597 19.16 136.642 19.16C137.575 19.16 138.397 19.3093 139.106 19.608C139.815 19.888 140.422 20.308 140.926 20.868C141.43 21.428 141.822 22.1093 142.102 22.912C142.401 23.7147 142.569 24.6387 142.606 25.684C142.625 26.0573 142.634 26.4027 142.634 26.72C142.634 27.0373 142.625 27.3827 142.606 27.756C142.569 28.764 142.41 29.6693 142.13 30.472C141.85 31.2747 141.458 31.956 140.954 32.516C140.45 33.076 139.834 33.5147 139.106 33.832C138.397 34.1307 137.575 34.28 136.642 34.28C135.727 34.28 134.925 34.1213 134.234 33.804C133.562 33.468 133.002 33.0013 132.554 32.404V38.62C132.554 38.8253 132.489 38.9933 132.358 39.124C132.227 39.2547 132.059 39.32 131.854 39.32H128.438ZM135.13 30.528C135.765 30.528 136.259 30.3973 136.614 30.136C136.969 29.8747 137.221 29.52 137.37 29.072C137.538 28.624 137.641 28.1293 137.678 27.588C137.715 27.0093 137.715 26.4307 137.678 25.852C137.641 25.3107 137.538 24.816 137.37 24.368C137.221 23.92 136.969 23.5653 136.614 23.304C136.259 23.0427 135.765 22.912 135.13 22.912C134.514 22.912 134.019 23.052 133.646 23.332C133.273 23.5933 133.002 23.9387 132.834 24.368C132.666 24.7973 132.573 25.264 132.554 25.768C132.535 26.1227 132.526 26.468 132.526 26.804C132.526 27.14 132.535 27.4947 132.554 27.868C132.573 28.3347 132.675 28.7733 132.862 29.184C133.049 29.576 133.329 29.9027 133.702 30.164C134.075 30.4067 134.551 30.528 135.13 30.528ZM152.29 34.28C150.722 34.28 149.397 34.028 148.314 33.524C147.25 33.02 146.429 32.3013 145.85 31.368C145.29 30.416 144.973 29.2867 144.898 27.98C144.879 27.6067 144.87 27.1867 144.87 26.72C144.87 26.2347 144.879 25.8147 144.898 25.46C144.973 24.1347 145.309 23.0053 145.906 22.072C146.503 21.1387 147.334 20.42 148.398 19.916C149.481 19.412 150.778 19.16 152.29 19.16C153.821 19.16 155.118 19.412 156.182 19.916C157.265 20.42 158.105 21.1387 158.702 22.072C159.299 23.0053 159.635 24.1347 159.71 25.46C159.729 25.8147 159.738 26.2347 159.738 26.72C159.738 27.1867 159.729 27.6067 159.71 27.98C159.635 29.2867 159.309 30.416 158.73 31.368C158.17 32.3013 157.349 33.02 156.266 33.524C155.202 34.028 153.877 34.28 152.29 34.28ZM152.29 30.864C153.13 30.864 153.737 30.612 154.11 30.108C154.502 29.604 154.726 28.848 154.782 27.84C154.801 27.56 154.81 27.1867 154.81 26.72C154.81 26.2533 154.801 25.88 154.782 25.6C154.726 24.6107 154.502 23.864 154.11 23.36C153.737 22.8373 153.13 22.576 152.29 22.576C151.469 22.576 150.862 22.8373 150.47 23.36C150.078 23.864 149.863 24.6107 149.826 25.6C149.807 25.88 149.798 26.2533 149.798 26.72C149.798 27.1867 149.807 27.56 149.826 27.84C149.863 28.848 150.078 29.604 150.47 30.108C150.862 30.612 151.469 30.864 152.29 30.864ZM169.885 34C168.69 34 167.654 33.8133 166.777 33.44C165.918 33.048 165.256 32.4507 164.789 31.648C164.322 30.8267 164.089 29.772 164.089 28.484V23.108H161.905C161.7 23.108 161.522 23.0427 161.373 22.912C161.242 22.7813 161.177 22.6133 161.177 22.408V20.14C161.177 19.9347 161.242 19.7667 161.373 19.636C161.522 19.5053 161.7 19.44 161.905 19.44H164.089V14.82C164.089 14.6147 164.154 14.4467 164.285 14.316C164.434 14.1853 164.602 14.12 164.789 14.12H168.037C168.242 14.12 168.41 14.1853 168.541 14.316C168.672 14.4467 168.737 14.6147 168.737 14.82V19.44H172.237C172.442 19.44 172.61 19.5053 172.741 19.636C172.872 19.7667 172.937 19.9347 172.937 20.14V22.408C172.937 22.6133 172.872 22.7813 172.741 22.912C172.61 23.0427 172.442 23.108 172.237 23.108H168.737V28.092C168.737 28.7267 168.858 29.2307 169.101 29.604C169.344 29.9773 169.754 30.164 170.333 30.164H172.489C172.694 30.164 172.862 30.2293 172.993 30.36C173.124 30.4907 173.189 30.6587 173.189 30.864V33.3C173.189 33.5053 173.124 33.6733 172.993 33.804C172.862 33.9347 172.694 34 172.489 34H169.885Z" fill="#272841"/>
</svg>
